<svg id="Layer_1" data-name="Layer 1" xmlns="http://www.w3.org/2000/svg" width="256" height="256" viewBox="0 0 256 256"><title>stop</title><path d="M130.1,53.2v71.7c0,3.2,5.8,3.3,5.8,0V64.7c0-11.4,20.1-11.7,20.1,0v68.2c0,4.2,4.1,4.8,5.7,1.7l7.6-16.7c6.2-13,26.9-5.1,20.4,10.1-1.6,4.1-21.3,49-26.4,60.3s-15.5,23.6-34.6,23.6H95.6c-20,0-30.6-11.9-30.6-32.7V88.5c0-12.1,16.6-11.4,16.6-.6v39.8c0,3.3,6,3.3,6,0V63.8c0-12.4,18.6-12.1,18.6,0v60.4c0,3.3,5.5,3.1,5.5-.1V53.2C111.7,41.2,130.1,40.8,130.1,53.2ZM121,27.3A26,26,0,0,0,99.8,38c-15.4-1.7-28.5,9.6-28.9,24.9C57.8,64.1,48.3,74.7,48.3,88.5v90.7c0,30.6,18.1,49.5,47.3,49.5h33.1c22.6,0,40.3-11.9,50-33.6,3.7-8.2,24.1-54.5,26.6-60.8,3.9-9.4,3.1-19.3-2.1-27.1a28.8,28.8,0,0,0-30.4-11.9V64.7c0-16.1-13.8-26.9-29.7-25.3C138.7,32,130.6,27.3,121,27.3Z"/></svg>