<svg id="Layer_1" data-name="Layer 1" xmlns="http://www.w3.org/2000/svg" width="256" height="256" viewBox="0 0 256 256"><title>tel</title><path d="M57.4,38.4,81.3,27.3l33.9,66.2L92.3,104.8c-4.5,10.5,18.1,52.7,27.7,53.4l22.4-11.1,34.5,66.6L153,225.4C87,255.5-7.4,72.1,57.4,38.4ZM73.6,49.1,65,53.3c-44.4,23.2,35.1,177.8,81,156.8l8.2-3.9-19.1-36.8-8.6,4.2c-26.6,13-69.4-69-42.5-83.5L92.5,86Zm65.7,64.2,24.5,7.3a25.5,25.5,0,0,0-17.2-31.8Zm15.2-50.9a53.1,53.1,0,0,1,35.7,66l-15.1-4.5A37.2,37.2,0,0,0,150,77.5Zm8-26.7a80.7,80.7,0,0,1,54.4,100.7l-15.4-4.6a64.9,64.9,0,0,0-43.6-80.7Z"/></svg>